<?xml version="1.0" encoding="UTF-8"?>
<svg version="1.1" xmlns="http://www.w3.org/2000/svg" width="698" height="518">
<path d="M0 0 C0.92087119 0.00092179 1.84174238 0.00184359 2.79051876 0.00279331 C3.84366268 0.00141865 4.8968066 0.00004398 5.98186398 -0.00137234 C7.72973454 0.00402058 7.72973454 0.00402058 9.51291561 0.00952244 C10.73225796 0.00937641 11.9516003 0.00923038 13.20789242 0.00907993 C16.56105596 0.0096589 19.91415859 0.01468815 23.26731133 0.02165389 C26.76803646 0.027888 30.26876233 0.02849127 33.76949215 0.0296793 C40.4028774 0.03279245 47.03624625 0.04100561 53.66962427 0.05102879 C61.21968292 0.06219044 68.76974233 0.06770051 76.31980717 0.07272422 C91.85480791 0.08318824 107.38979227 0.10078736 122.92478085 0.12304783 C123.72297639 3.08751316 123.967784 5.2464046 123.56687069 8.30102634 C123.46260265 9.12470707 123.35833462 9.94838779 123.25090694 10.79702854 C123.13039471 11.68965397 123.00988247 12.5822794 122.88571835 13.50195408 C122.70440617 14.91461048 122.70440617 14.91461048 122.51943111 16.3558054 C122.25699377 18.39547939 121.9912746 20.43473319 121.72266293 22.47360325 C121.00012149 27.96157057 120.30211262 33.45267738 119.6005621 38.94336033 C119.45696758 40.06195942 119.31337307 41.18055851 119.16542721 42.33305454 C117.8559713 52.56634431 116.65673515 62.81047306 115.48728085 73.06054783 C113.53990747 90.07248868 111.46614482 107.06729741 109.36228085 124.06054783 C107.22441274 141.33483441 105.15354363 158.61145662 103.26999569 175.91528416 C102.02314423 187.35839353 100.65694323 198.78423322 99.25704098 210.2095499 C99.17446545 210.88354328 99.09188992 211.55753666 99.0068121 212.25195408 C98.92290722 212.93646137 98.83900234 213.62096867 98.75255489 214.32621861 C97.53553518 224.27638809 96.35762044 234.23126958 95.17478085 244.18554783 C94.94960377 246.07959103 94.72442478 247.97363401 94.49924374 249.86767673 C93.97405742 254.28609043 93.44928885 258.70455356 92.92478085 263.12304783 C102.2528041 263.16958953 111.58078677 263.20502722 120.90890121 263.22667217 C125.2413035 263.23706578 129.57362577 263.25114323 133.90598202 263.27392673 C138.0946108 263.29581408 142.28316308 263.30764963 146.47184467 263.31280231 C148.06205796 263.31646976 149.65226754 263.32363053 151.24244785 263.33450794 C173.7857698 263.48244207 186.43269959 257.04981077 202.92478085 242.12304783 C203.47762753 241.62659763 204.03047421 241.13014744 204.60007381 240.6186533 C209.96836712 235.79280637 215.22787526 230.88688362 220.28415585 225.73242283 C222.73771148 223.32560159 225.35303945 221.11562503 227.95603085 218.87304783 C229.85501156 217.18506497 231.64484073 215.43535049 233.42478085 213.62304783 C235.79520442 211.20972066 238.23214392 208.9503293 240.79978085 206.74804783 C243.80945614 204.15670578 246.63566701 201.4505 249.42478085 198.62304783 C252.82848361 195.17255877 256.34917074 191.95667389 260.02634335 188.80273533 C261.90448838 187.14100207 263.667836 185.41179258 265.42478085 183.62304783 C267.79520442 181.20972066 270.23214392 178.9503293 272.79978085 176.74804783 C275.75885679 174.20358329 278.51449805 171.5436323 281.23728085 168.74804783 C286.13639742 163.78124053 291.48758752 159.48104066 296.92478085 155.12304783 C298.22266452 154.04717057 299.5152827 152.96487126 300.79978085 151.87304783 C301.29220272 151.45539158 301.7846246 151.03773533 302.29196835 150.60742283 C305.49867396 147.69223591 308.49503917 144.55857078 311.5380621 141.47461033 C316.82494553 136.13416946 322.19211264 130.98641799 327.92478085 126.12304783 C329.32319306 124.91769999 330.71902323 123.70935016 332.11228085 122.49804783 C333.03073788 121.70527439 333.03073788 121.70527439 333.9677496 120.89648533 C336.86003497 118.27553211 339.57686491 115.48819933 342.31857967 112.71142673 C348.34061984 106.61680723 354.37692993 100.65933096 360.92478085 95.12304783 C362.32337153 93.91790707 363.71919099 92.7095431 365.11228085 91.49804783 C366.03073788 90.70527439 366.03073788 90.70527439 366.9677496 89.89648533 C369.86003497 87.27553211 372.57686491 84.48819933 375.31857967 81.71142673 C381.33862099 75.61883018 387.35982577 69.6364733 393.92478085 64.12304783 C398.76473888 60.032372 403.32305051 55.83247506 407.7177496 51.25586033 C408.65554256 50.29293064 408.65554256 50.29293064 409.61228085 49.31054783 C410.48433163 48.40369236 410.48433163 48.40369236 411.3739996 47.47851658 C412.92478085 46.12304783 412.92478085 46.12304783 414.92478085 46.12304783 C415.13231991 45.57777439 415.33985897 45.03250095 415.5536871 44.47070408 C417.44057337 41.23988172 420.08563968 39.00702952 422.86228085 36.56054783 C426.86828546 33.02441132 426.86828546 33.02441132 430.6786871 29.28320408 C431.92478085 28.12304783 431.92478085 28.12304783 433.92478085 28.12304783 C434.25478085 27.13304783 434.58478085 26.14304783 434.92478085 25.12304783 C436.45603085 23.61523533 436.45603085 23.61523533 438.42478085 21.99804783 C441.5758432 19.33089862 444.53067496 16.56739861 447.42478085 13.62304783 C450.9144532 10.0849918 454.51863778 6.76102463 458.2958746 3.53320408 C459.55085658 2.44675685 460.7510374 1.29679128 461.92478085 0.12304783 C464.87268162 -0.12304783 464.87268162 -0.12304783 468.7330389 -0.1174612 C469.44120231 -0.11917005 470.14936572 -0.1208789 470.87898862 -0.12263954 C473.26365743 -0.12594677 475.64804791 -0.11491069 478.032691 -0.10400295 C479.73739776 -0.1034391 481.44210501 -0.10375488 483.14681149 -0.10488796 C487.78501712 -0.10546351 492.42312002 -0.09367667 497.06130171 -0.07974005 C501.90465466 -0.06726619 506.74800977 -0.06606484 511.5913763 -0.06368923 C520.76760963 -0.0574646 529.94379548 -0.04104052 539.12000787 -0.02099025 C549.56483074 0.00133822 560.00965584 0.01235449 570.45449662 0.02240062 C591.94461789 0.04332488 613.43469638 0.0785199 634.92478085 0.12304783 C634.20306968 3.39546279 633.50718152 4.88745796 631.00290585 7.15429783 C630.39648251 7.71109226 629.79005917 8.2678867 629.16525936 8.84155369 C628.50840145 9.42944675 627.85154354 10.01733982 627.17478085 10.62304783 C626.4966534 11.24252293 625.81852596 11.86199802 625.11984921 12.50024509 C623.72501138 13.77383519 622.32712793 15.04409758 620.92624569 16.31103611 C618.09486308 18.87440788 615.29109266 21.46711029 612.48728085 24.06054783 C611.964566 24.54233494 611.44185116 25.02412205 610.90329647 25.52050877 C602.40567232 33.35537988 593.99537317 41.28466639 585.5849371 49.21289158 C578.71102271 55.69207243 571.82642275 62.1564603 564.87277889 68.55004978 C559.66604037 73.345074 554.51701562 78.20071064 549.36667538 83.0561533 C542.85715253 89.19178387 536.32052481 95.29786516 529.77634335 101.39648533 C527.88709155 103.1581927 525.99945627 104.92161652 524.11228085 106.68554783 C522.84148865 107.87309185 521.57065556 109.06059212 520.29978085 110.24804783 C519.68223934 110.82506443 519.06469784 111.40208103 518.42844296 111.99658298 C515.39582844 114.82723649 512.35685489 117.65050227 509.3036871 120.45898533 C508.7237701 120.99249607 508.14385311 121.52600681 507.54636288 122.07568455 C506.46905352 123.06553475 505.39070181 124.05425246 504.31101131 125.04150486 C501.68878417 127.44974308 499.15322886 129.9091474 496.6786871 132.46679783 C493.92478085 135.12304783 493.92478085 135.12304783 491.92478085 135.12304783 C491.59478085 136.11304783 491.26478085 137.10304783 490.92478085 138.12304783 C489.36057186 139.68139744 489.36057186 139.68139744 487.3661871 141.33789158 C482.35532718 145.58936109 477.60495676 150.08569207 472.83689022 154.6054697 C469.11375106 158.11875262 465.34278396 161.53690552 461.42111874 164.82788181 C460.03208961 166.03016596 458.7237976 167.32403107 457.42478085 168.62304783 C454.97635318 171.07147549 452.4300747 173.28846425 449.76853085 175.49804783 C447.37819161 177.60478749 445.16283896 179.85523709 442.92478085 182.12304783 C436.44185532 188.68993144 429.97748405 195.15990629 422.92478085 201.12304783 C417.55597327 205.74394075 417.55597327 205.74394075 412.42478085 210.62304783 C409.72467645 213.32315223 406.8885079 215.79921664 403.98728085 218.27929783 C401.53499583 220.47149201 399.23509526 222.78165295 396.92478085 225.12304783 C390.44420712 231.68766685 383.99571487 238.18468765 376.92478085 244.12304783 C372.08482281 248.21372366 367.52651118 252.4136206 363.1318121 256.99023533 C362.19401913 257.95316502 362.19401913 257.95316502 361.23728085 258.93554783 C360.65591366 259.54011814 360.07454647 260.14468845 359.4755621 260.76757908 C357.92478085 262.12304783 357.92478085 262.12304783 355.92478085 262.12304783 C355.68759335 262.69539158 355.45040585 263.26773533 355.20603085 263.85742283 C353.64884847 266.61097703 351.79985288 268.29100417 349.42478085 270.37304783 C348.2336871 271.4326572 348.2336871 271.4326572 347.01853085 272.51367283 C344.92478085 274.12304783 344.92478085 274.12304783 342.92478085 274.12304783 C342.68759335 274.69539158 342.45040585 275.26773533 342.20603085 275.85742283 C340.64884847 278.61097703 338.79985288 280.29100417 336.42478085 282.37304783 C335.2336871 283.4326572 335.2336871 283.4326572 334.01853085 284.51367283 C331.92478085 286.12304783 331.92478085 286.12304783 329.92478085 286.12304783 C329.59478085 287.11304783 329.26478085 288.10304783 328.92478085 289.12304783 C327.33371654 290.56106965 325.67617935 291.92630118 323.98728085 293.24804783 C320.19969438 296.26445046 316.54102133 299.33468407 312.98728085 302.62304783 C305.81427247 309.15540473 297.99787065 314.7646231 289.92478085 320.12304783 C288.71315174 320.95870618 287.50362565 321.79741938 286.2958746 322.63867283 C237.82337505 356.37951504 188.16321363 370.36009142 129.29978085 370.23657322 C127.38611509 370.23629042 125.47244922 370.23645089 123.55878353 370.23701572 C118.41525723 370.23730009 113.27175473 370.2314622 108.12823391 370.22444177 C102.73375733 370.21814766 97.33928007 370.21759967 91.94480038 370.21641636 C81.75261263 370.21332078 71.56043574 370.20513152 61.36825275 370.19506687 C49.75504489 370.18385038 38.14183648 370.17838139 26.52862453 370.17337143 C2.66067064 370.16294724 -21.20727364 370.14538247 -45.07521915 370.12304783 C-46.06229672 365.73534245 -45.92021935 361.97838831 -45.3603754 357.54882908 C-45.26985401 356.78193256 -45.17933262 356.01503605 -45.08606815 355.22490025 C-44.77746016 352.62749096 -44.45751776 350.03160132 -44.13771915 347.43554783 C-43.91244142 345.5586748 -43.68785397 343.68171882 -43.46389103 341.80468845 C-42.82247879 336.44893745 -42.17042919 331.09452471 -41.5164423 325.74029636 C-41.05228087 321.93499449 -40.59039786 318.12941975 -40.12941837 314.32373142 C-40.04847998 313.65555362 -39.96754158 312.98737581 -39.88415051 312.2989502 C-39.71805013 310.92758034 -39.5519615 309.55620905 -39.38588428 308.18483639 C-38.96220786 304.68659659 -38.53829687 301.18838525 -38.11428165 297.6901865 C-37.98659554 296.63673337 -37.98659554 296.63673337 -37.85632992 295.56199837 C-37.3321776 291.23884221 -36.80692674 286.91582091 -36.28089046 282.5928936 C-34.25893451 265.97630807 -32.27011541 249.35676017 -30.36287785 232.72656345 C-28.91736153 220.14422351 -27.40820432 207.57007401 -25.8760004 194.99804783 C-25.77728956 194.18791233 -25.67857872 193.37777683 -25.57687664 192.54309177 C-24.57811236 184.34828975 -23.57701719 176.15377706 -22.57154751 167.959795 C-22.10038268 164.11850557 -21.63037154 160.27707591 -21.16115665 156.43554783 C-21.07029034 155.6916889 -20.97942402 154.94782997 -20.88580418 154.18142986 C-19.53203088 143.07910698 -18.24648727 131.97125334 -17.04540348 120.85119724 C-16.33322786 114.28247755 -15.52525788 107.73284327 -14.63771915 101.18554783 C-13.19146515 90.3913663 -11.99729553 79.57494377 -10.81624699 68.74926853 C-9.71473857 58.66717164 -8.52650038 48.60752987 -7.15383244 38.55810642 C-6.42978461 33.15208128 -5.80951759 27.74076656 -5.2588129 22.31445408 C-5.19087025 21.6450127 -5.12292759 20.97557133 -5.05292606 20.28584385 C-4.71920142 16.97457961 -4.39417162 13.66275618 -4.07692814 10.34985447 C-3.96034855 9.1638364 -3.84376896 7.97781834 -3.72365665 6.75586033 C-3.62230412 5.6925449 -3.52095158 4.62922947 -3.41652775 3.53369236 C-2.94090267 0.17437758 -2.94090267 0.17437758 0 0 Z " fill="#000000" transform="translate(54.07521915435791,104.87695217132568)"/>
</svg>
